<svg width="173" height="204" viewBox="0 0 173 204" fill="none" xmlns="http://www.w3.org/2000/svg">
<path d="M86.5 1.5C133.222 1.5 171.5 46.2541 171.5 102C171.5 157.746 133.222 202.5 86.5 202.5C39.7781 202.5 1.5 157.746 1.5 102C1.5 46.2541 39.7781 1.5 86.5 1.5Z" stroke="#794F25" stroke-width="3"/>
<path d="M86 6C130.022 6 166 48.8043 166 102C166 155.196 130.022 198 86 198C41.9785 198 6 155.196 6 102C6 48.8043 41.9785 6 86 6Z" stroke="#794F25" stroke-width="2"/>
<path d="M53.9365 49.3398C54.243 49.3398 54.6571 49.3949 55.0107 49.6699C55.412 49.982 55.5497 50.4278 55.5498 50.8174C55.5497 51.4287 55.2625 51.9647 54.7236 52.2881L54.6904 52.3076L54.6562 52.3252C54.5031 52.4018 54.3216 52.5022 54.1104 52.6289L54.041 52.6699L53.9668 52.7002C53.8404 52.7508 53.6824 52.8328 53.4902 52.9551C53.4727 52.9981 53.4466 53.0851 53.4316 53.2344L53.4297 53.252C53.3554 53.8834 53.2805 54.515 53.2061 55.1465H85.3594C89.2101 55.1465 92.6762 55.703 95.7568 56.8154C98.9228 57.9279 101.576 59.5532 103.715 61.6924C104.74 62.6765 105.646 63.7695 106.436 64.9697C107.464 64.6808 108.498 64.411 109.537 64.1611C114.337 63.0073 119.12 62.4287 123.883 62.4287C125.415 62.4287 127.12 62.5216 128.998 62.7041C130.981 62.8458 132.838 63.2009 134.562 63.7754C136.325 64.3631 137.843 65.2543 139.096 66.457C140.464 67.7707 141.107 69.5287 141.107 71.6104C141.107 72.8145 140.906 73.9759 140.502 75.0879C140.113 76.1563 139.604 77.1746 138.976 78.1426C138.384 79.08 137.67 79.941 136.839 80.7236L136.838 80.7227C136.098 81.4615 135.355 82.1358 134.607 82.7432L134.608 82.7441C132.739 84.2866 130.576 85.7505 128.125 87.1377L128.118 87.1406L128.112 87.1445C125.655 88.4891 122.972 89.6913 120.066 90.752C117.149 91.8168 114.03 92.671 110.711 93.3164L110.698 93.3184C109.082 93.6102 107.434 93.8293 105.755 93.9795C104.093 96.4611 102.046 98.5794 99.6074 100.33C96.3556 102.641 92.6758 103.796 88.5684 103.796C90.023 104.395 91.606 105.636 93.3174 107.519C95.0288 109.316 96.527 111.07 97.8105 112.781C97.8235 112.801 98.3792 113.657 99.4785 115.349C100.676 116.974 102.131 118.985 103.843 121.381C105.64 123.777 107.437 126.131 109.234 128.441C109.278 128.497 109.321 128.552 109.364 128.607L110.004 128.224C113.289 126.243 116.253 124.2 118.896 122.094C121.548 119.981 123.783 117.947 125.605 115.991L125.947 115.623L126.447 115.679C126.81 115.719 127.224 115.857 127.54 116.208C127.857 116.56 127.95 116.988 127.95 117.354V117.749L127.681 118.038C125.64 120.218 123.214 122.41 120.41 124.616L120.409 124.618C117.651 126.779 114.598 128.889 111.254 130.95L111.255 130.951C111.251 130.954 111.247 130.956 111.243 130.958C112.208 132.131 113.079 133.132 113.855 133.961C115.567 135.844 117.279 137.512 118.99 138.967C120.702 140.422 122.542 141.577 124.51 142.433C126.563 143.288 128.831 143.717 131.312 143.717V145H124.253C120.316 145 116.893 144.401 113.983 143.203C111.16 142.005 108.764 140.55 106.796 138.839C105.509 137.664 104.35 136.524 103.319 135.422C102.444 135.866 101.557 136.304 100.656 136.732C96.8952 138.521 93.0639 140.081 89.1641 141.411C85.7076 142.59 82.2143 143.554 78.6846 144.302V145H74.9736C71.8231 145.506 68.7419 145.76 65.7305 145.76C63.1141 145.76 60.6788 145.509 58.4287 145H50.7012V143.717H52.3701C52.9715 143.717 53.5473 143.657 54.0986 143.545C52.9905 143.004 51.9711 142.348 51.0449 141.572C49.227 140.049 47.8394 138.093 46.875 135.73C45.9035 133.35 45.4375 130.486 45.4375 127.171C45.4376 122.698 46.1604 118.447 47.6104 114.425C49.0458 110.443 50.9214 106.69 53.2373 103.17L53.2422 103.162C55.4305 99.9012 57.8785 96.8209 60.585 93.9209V79.5371C59.8421 78.8489 59.1293 78.1377 58.4502 77.4004C55.7893 74.506 53.7252 71.3664 52.2686 67.9834C50.8062 64.5869 50.0732 61.043 50.0732 57.3613C50.0733 56.7015 50.097 56.0623 50.1445 55.4443C50.1918 54.8302 50.2627 54.1949 50.3564 53.5391L50.3584 53.5215L50.3613 53.5049C50.5963 52.189 51.0277 51.0433 51.8291 50.3525C52.4246 49.8066 53.141 49.3399 53.9365 49.3398ZM74.2197 88.1934C72.4287 89.7498 70.6655 91.3625 68.9287 93.0293V135.63L68.9385 136.043C69.0337 138.094 69.8428 139.882 71.3672 141.406C71.6966 141.718 72.0395 141.997 72.3936 142.246C73.7074 142.074 75.0357 141.859 76.3779 141.597H76.3809C80.332 140.833 84.239 139.777 88.1025 138.43L88.1162 138.426C92.032 137.121 95.8348 135.591 99.5244 133.836L99.5283 133.833C100.114 133.558 100.693 133.278 101.267 132.997C100.886 132.483 100.332 131.736 99.6074 130.752C98.495 129.126 97.1258 127.2 95.5 124.976C93.9597 122.665 92.4193 120.397 90.8789 118.172C89.3386 115.947 88.0119 114.065 86.8994 112.524C85.7869 110.898 85.1448 109.957 84.9736 109.7C83.3478 107.561 81.5511 105.593 79.583 103.796C77.6149 101.999 75.4754 101.1 73.165 101.1V99.8164C73.1842 99.8177 73.8258 99.8601 75.0898 99.9443C76.459 99.9443 78.0851 99.902 79.9678 99.8164C82.1927 99.7308 84.6314 99.3881 87.2842 98.7891C89.9369 98.1901 92.419 96.9499 94.7295 95.0674C95.1099 94.7574 95.473 94.418 95.8232 94.0547C92.5442 93.8077 89.3815 93.2846 86.3369 92.4834C82.1729 91.3876 78.1338 89.9571 74.2197 88.1934ZM60.585 101.964C59.3468 103.511 58.1797 105.1 57.085 106.731L57.082 106.736C54.7179 110.216 52.7995 113.893 51.3281 117.771C49.9164 121.565 49.21 125.537 49.21 129.693C49.21 132.179 49.6018 134.206 50.3398 135.81C51.0893 137.345 52.0683 138.583 53.2705 139.544L53.5137 139.733L53.5176 139.736C54.6878 140.623 56.05 141.306 57.6143 141.781C57.7506 141.661 57.8863 141.538 58.0176 141.406C59.5419 139.882 60.3891 138.094 60.5596 136.043L60.585 135.63V101.964ZM99.3203 72.8721C94.9576 74.7161 90.7522 76.8748 86.7041 79.3486L86.6973 79.3525C83.1582 81.476 79.8448 83.7184 76.7568 86.0781C80.5691 87.651 84.2699 88.8896 87.8594 89.7969C91.1669 90.6236 94.5168 91.1163 97.9111 91.2764C98.7287 89.8935 99.4245 88.2916 99.9922 86.4668C100.249 85.5255 100.463 84.3701 100.634 83.001C100.805 81.5462 100.848 80.1339 100.763 78.7646C100.73 76.5237 100.486 74.4608 100.034 72.5752C99.7961 72.6732 99.5579 72.7716 99.3203 72.8721ZM125.996 66.9512C121.624 66.9512 117.179 67.4867 112.66 68.5605L112.651 68.5625C111.331 68.8633 110.018 69.1989 108.712 69.5684C109.829 72.4063 110.39 75.6424 110.39 79.2783C110.39 83.313 109.438 87.1814 107.539 90.8857C108.056 90.8196 108.569 90.7497 109.079 90.6689L110.272 90.4648C113.45 89.8376 116.396 89.0332 119.112 88.0537L119.117 88.0518C121.886 87.0693 124.399 85.934 126.66 84.6484L126.668 84.6436C128.986 83.3508 130.977 81.9998 132.646 80.5938L132.653 80.5879L132.66 80.583C133.35 80.0225 134.021 79.3943 134.674 78.6982L134.686 78.6855L134.696 78.6748C135.38 77.9915 135.973 77.2917 136.479 76.5771C136.984 75.8199 137.381 75.0487 137.67 74.2637L137.68 74.2383C138 73.4384 138.153 72.6549 138.153 71.8828C138.153 70.6853 137.758 69.8861 137.042 69.333L137.031 69.3252L137.021 69.3164C136.146 68.6011 135.076 68.0702 133.79 67.7383L133.776 67.7344L133.762 67.7305C132.436 67.3454 131.064 67.1308 129.646 67.0879L129.617 67.0859C128.128 66.9957 126.922 66.9512 125.996 66.9512ZM68.9287 85.8516C68.9887 85.799 69.0484 85.7458 69.1084 85.6934C69.0481 85.6588 68.9888 85.6226 68.9287 85.5879V85.8516ZM84.8457 59.2539C82.4496 59.0828 79.9676 59.0394 77.4004 59.125H68.9287V82.1631C69.7799 82.6719 70.6486 83.1642 71.5361 83.6377C74.8886 80.8568 78.5488 78.224 82.5156 75.7393C86.6925 73.123 91.0307 70.8274 95.5293 68.8535L95.5332 68.8516C96.4219 68.4655 97.3153 68.0957 98.2129 67.7412C97.6562 66.7175 97.0083 65.7706 96.2695 64.9014C93.4456 61.3931 89.6377 59.5106 84.8457 59.2539ZM53.1152 56.4619C53.1018 56.8529 53.0957 57.2439 53.0957 57.6348C53.0957 61.3768 53.7558 64.6866 55.0518 67.583L55.3037 68.1221C56.507 70.6247 58.0806 72.9287 60.0283 75.0352L60.4512 75.4844L60.457 75.4902C60.4991 75.5346 60.5427 75.5779 60.585 75.6221V64.5166C60.4994 62.2917 59.6434 60.4095 58.0176 58.8691C56.6523 57.428 55.0183 56.6257 53.1152 56.4619Z" fill="#794F25"/>
</svg>
